<?xml version="1.0" encoding="UTF-8" standalone="no"?>
<!DOCTYPE svg PUBLIC "-//W3C//DTD SVG 1.1//EN"
 "http://www.w3.org/Graphics/SVG/1.1/DTD/svg11.dtd">
<!-- Generated by graphviz version 2.40.1 (20161225.0304)
 -->
<!-- Title: dependencies Pages: 1 -->
<svg width="504pt" height="284pt"
 viewBox="0.00 0.00 504.00 284.00" xmlns="http://www.w3.org/2000/svg" xmlns:xlink="http://www.w3.org/1999/xlink">
<g id="graph0" class="graph" transform="scale(1 1) rotate(0) translate(4 280)">
<title>dependencies</title>
<polygon fill="#ffffff" stroke="transparent" points="-4,4 -4,-280 500,-280 500,4 -4,4"/>
<text text-anchor="start" x="227.0091" y="-42.4" font-family="sans-serif" font-weight="bold" font-size="14.00" fill="#000000">Legend</text>
<polygon fill="#ffffb3" stroke="transparent" points="14,-10 14,-30 34,-30 34,-10 14,-10"/>
<text text-anchor="start" x="37.629" y="-15.4" font-family="sans-serif" font-size="14.00" fill="#000000"> &#160;Declarations</text>
<polygon fill="#8dd3c7" stroke="transparent" points="127,-10 127,-30 147,-30 147,-10 127,-10"/>
<text text-anchor="start" x="150.7251" y="-15.4" font-family="sans-serif" font-size="14.00" fill="#000000"> &#160;Module</text>
<polygon fill="#80b1d3" stroke="transparent" points="213,-10 213,-30 233,-30 233,-10 213,-10"/>
<text text-anchor="start" x="236.7812" y="-15.4" font-family="sans-serif" font-size="14.00" fill="#000000"> &#160;Bootstrap</text>
<polygon fill="#fdb462" stroke="transparent" points="310,-10 310,-30 330,-30 330,-10 310,-10"/>
<text text-anchor="start" x="333.6732" y="-15.4" font-family="sans-serif" font-size="14.00" fill="#000000"> &#160;Providers</text>
<polygon fill="#fb8072" stroke="transparent" points="406,-10 406,-30 426,-30 426,-10 406,-10"/>
<text text-anchor="start" x="429.7258" y="-15.4" font-family="sans-serif" font-size="14.00" fill="#000000"> &#160;Exports</text>
<g id="clust1" class="cluster">
<title>cluster_CardGridModule</title>
<polygon fill="none" stroke="#000000" stroke-dasharray="1,5" points="34,-70 34,-268 462,-268 462,-70 34,-70"/>
</g>
<g id="clust2" class="cluster">
<title>cluster_CardGridModule_declarations</title>
<polygon fill="none" stroke="#000000" points="304,-78 304,-130 454,-130 454,-78 304,-78"/>
</g>
<g id="clust4" class="cluster">
<title>cluster_CardGridModule_imports</title>
<polygon fill="none" stroke="#000000" points="42,-78 42,-130 296,-130 296,-78 42,-78"/>
</g>
<g id="clust5" class="cluster">
<title>cluster_CardGridModule_exports</title>
<polygon fill="none" stroke="#000000" points="150,-208 150,-260 304,-260 304,-208 150,-208"/>
</g>
<!-- CardGridComponent -->
<g id="node1" class="node">
<title>CardGridComponent</title>
<polygon fill="#ffffb3" stroke="#000000" points="446.2022,-122 311.7978,-122 311.7978,-86 446.2022,-86 446.2022,-122"/>
<text text-anchor="middle" x="379" y="-99.8" font-family="Times,serif" font-size="14.00" fill="#000000">CardGridComponent</text>
</g>
<!-- CardGridModule -->
<g id="node2" class="node">
<title>CardGridModule</title>
<polygon fill="#8dd3c7" stroke="#000000" points="283.4202,-187 280.4202,-191 259.4202,-191 256.4202,-187 170.5798,-187 170.5798,-151 283.4202,-151 283.4202,-187"/>
<text text-anchor="middle" x="227" y="-164.8" font-family="Times,serif" font-size="14.00" fill="#000000">CardGridModule</text>
</g>
<!-- CardGridComponent&#45;&gt;CardGridModule -->
<g id="edge1" class="edge">
<title>CardGridComponent&#45;&gt;CardGridModule</title>
<path fill="none" stroke="#000000" d="M379,-122.1061C379,-141.3391 379,-169 379,-169 379,-169 293.5992,-169 293.5992,-169"/>
<polygon fill="#000000" stroke="#000000" points="293.5992,-165.5001 283.5992,-169 293.5992,-172.5001 293.5992,-165.5001"/>
</g>
<!-- CardGridComponent  -->
<g id="node5" class="node">
<title>CardGridComponent </title>
<polygon fill="#fb8072" stroke="#000000" points="295.7023,-252 158.2977,-252 158.2977,-216 295.7023,-216 295.7023,-252"/>
<text text-anchor="middle" x="227" y="-229.8" font-family="Times,serif" font-size="14.00" fill="#000000">CardGridComponent </text>
</g>
<!-- CardGridModule&#45;&gt;CardGridComponent  -->
<g id="edge4" class="edge">
<title>CardGridModule&#45;&gt;CardGridComponent </title>
<path fill="none" stroke="#000000" stroke-dasharray="5,2" d="M227,-187.1061C227,-187.1061 227,-205.991 227,-205.991"/>
<polygon fill="#000000" stroke="#000000" points="223.5001,-205.9909 227,-215.991 230.5001,-205.991 223.5001,-205.9909"/>
</g>
<!-- CardPopupModule -->
<g id="node3" class="node">
<title>CardPopupModule</title>
<polygon fill="#8dd3c7" stroke="#000000" points="288.045,-122 285.045,-126 264.045,-126 261.045,-122 165.955,-122 165.955,-86 288.045,-86 288.045,-122"/>
<text text-anchor="middle" x="227" y="-99.8" font-family="Times,serif" font-size="14.00" fill="#000000">CardPopupModule</text>
</g>
<!-- CardPopupModule&#45;&gt;CardGridModule -->
<g id="edge2" class="edge">
<title>CardPopupModule&#45;&gt;CardGridModule</title>
<path fill="none" stroke="#000000" d="M227,-122.1061C227,-122.1061 227,-140.991 227,-140.991"/>
<polygon fill="#000000" stroke="#000000" points="223.5001,-140.9909 227,-150.991 230.5001,-140.991 223.5001,-140.9909"/>
</g>
<!-- SharedModule -->
<g id="node4" class="node">
<title>SharedModule</title>
<polygon fill="#8dd3c7" stroke="#000000" points="148.4231,-122 145.4231,-126 124.4231,-126 121.4231,-122 49.5769,-122 49.5769,-86 148.4231,-86 148.4231,-122"/>
<text text-anchor="middle" x="99" y="-99.8" font-family="Times,serif" font-size="14.00" fill="#000000">SharedModule</text>
</g>
<!-- SharedModule&#45;&gt;CardGridModule -->
<g id="edge3" class="edge">
<title>SharedModule&#45;&gt;CardGridModule</title>
<path fill="none" stroke="#000000" d="M99,-122.1061C99,-141.3391 99,-169 99,-169 99,-169 160.4847,-169 160.4847,-169"/>
<polygon fill="#000000" stroke="#000000" points="160.4848,-172.5001 170.4847,-169 160.4847,-165.5001 160.4848,-172.5001"/>
</g>
</g>
</svg>
