<?xml version="1.0" encoding="UTF-8" standalone="no"?>
<!DOCTYPE svg PUBLIC "-//W3C//DTD SVG 1.1//EN"
 "http://www.w3.org/Graphics/SVG/1.1/DTD/svg11.dtd">
<!-- Generated by graphviz version 2.40.1 (20161225.0304)
 -->
<!-- Title: dependencies Pages: 1 -->
<svg width="889pt" height="284pt"
 viewBox="0.00 0.00 889.00 284.00" xmlns="http://www.w3.org/2000/svg" xmlns:xlink="http://www.w3.org/1999/xlink">
<g id="graph0" class="graph" transform="scale(1 1) rotate(0) translate(4 280)">
<title>dependencies</title>
<polygon fill="#ffffff" stroke="transparent" points="-4,4 -4,-280 885,-280 885,4 -4,4"/>
<text text-anchor="start" x="419.5091" y="-42.4" font-family="sans-serif" font-weight="bold" font-size="14.00" fill="#000000">Legend</text>
<polygon fill="#ffffb3" stroke="transparent" points="206.5,-10 206.5,-30 226.5,-30 226.5,-10 206.5,-10"/>
<text text-anchor="start" x="230.129" y="-15.4" font-family="sans-serif" font-size="14.00" fill="#000000"> &#160;Declarations</text>
<polygon fill="#8dd3c7" stroke="transparent" points="319.5,-10 319.5,-30 339.5,-30 339.5,-10 319.5,-10"/>
<text text-anchor="start" x="343.2251" y="-15.4" font-family="sans-serif" font-size="14.00" fill="#000000"> &#160;Module</text>
<polygon fill="#80b1d3" stroke="transparent" points="405.5,-10 405.5,-30 425.5,-30 425.5,-10 405.5,-10"/>
<text text-anchor="start" x="429.2812" y="-15.4" font-family="sans-serif" font-size="14.00" fill="#000000"> &#160;Bootstrap</text>
<polygon fill="#fdb462" stroke="transparent" points="502.5,-10 502.5,-30 522.5,-30 522.5,-10 502.5,-10"/>
<text text-anchor="start" x="526.1732" y="-15.4" font-family="sans-serif" font-size="14.00" fill="#000000"> &#160;Providers</text>
<polygon fill="#fb8072" stroke="transparent" points="598.5,-10 598.5,-30 618.5,-30 618.5,-10 598.5,-10"/>
<text text-anchor="start" x="622.2258" y="-15.4" font-family="sans-serif" font-size="14.00" fill="#000000"> &#160;Exports</text>
<g id="clust1" class="cluster">
<title>cluster_DashboardModule</title>
<polygon fill="none" stroke="#000000" stroke-dasharray="1,5" points="8,-70 8,-268 873,-268 873,-70 8,-70"/>
</g>
<g id="clust2" class="cluster">
<title>cluster_DashboardModule_declarations</title>
<polygon fill="none" stroke="#000000" points="707,-78 707,-130 865,-130 865,-78 707,-78"/>
</g>
<g id="clust4" class="cluster">
<title>cluster_DashboardModule_imports</title>
<polygon fill="none" stroke="#000000" points="16,-78 16,-130 699,-130 699,-78 16,-78"/>
</g>
<g id="clust5" class="cluster">
<title>cluster_DashboardModule_exports</title>
<polygon fill="none" stroke="#000000" points="338,-208 338,-260 500,-260 500,-208 338,-208"/>
</g>
<!-- DashboardComponent -->
<g id="node1" class="node">
<title>DashboardComponent</title>
<polygon fill="#ffffb3" stroke="#000000" points="856.9734,-122 715.0266,-122 715.0266,-86 856.9734,-86 856.9734,-122"/>
<text text-anchor="middle" x="786" y="-99.8" font-family="Times,serif" font-size="14.00" fill="#000000">DashboardComponent</text>
</g>
<!-- DashboardModule -->
<g id="node2" class="node">
<title>DashboardModule</title>
<polygon fill="#8dd3c7" stroke="#000000" points="479.191,-187 476.191,-191 455.191,-191 452.191,-187 358.809,-187 358.809,-151 479.191,-151 479.191,-187"/>
<text text-anchor="middle" x="419" y="-164.8" font-family="Times,serif" font-size="14.00" fill="#000000">DashboardModule</text>
</g>
<!-- DashboardComponent&#45;&gt;DashboardModule -->
<g id="edge1" class="edge">
<title>DashboardComponent&#45;&gt;DashboardModule</title>
<path fill="none" stroke="#000000" d="M786,-122.2843C786,-143.3211 786,-175 786,-175 786,-175 489.1916,-175 489.1916,-175"/>
<polygon fill="#000000" stroke="#000000" points="489.1917,-171.5001 479.1916,-175 489.1916,-178.5001 489.1917,-171.5001"/>
</g>
<!-- DashboardComponent  -->
<g id="node8" class="node">
<title>DashboardComponent </title>
<polygon fill="#fb8072" stroke="#000000" points="491.9742,-252 346.0258,-252 346.0258,-216 491.9742,-216 491.9742,-252"/>
<text text-anchor="middle" x="419" y="-229.8" font-family="Times,serif" font-size="14.00" fill="#000000">DashboardComponent </text>
</g>
<!-- DashboardModule&#45;&gt;DashboardComponent  -->
<g id="edge7" class="edge">
<title>DashboardModule&#45;&gt;DashboardComponent </title>
<path fill="none" stroke="#000000" stroke-dasharray="5,2" d="M419,-187.1061C419,-187.1061 419,-205.991 419,-205.991"/>
<polygon fill="#000000" stroke="#000000" points="415.5001,-205.9909 419,-215.991 422.5001,-205.991 415.5001,-205.9909"/>
</g>
<!-- CardGridModule -->
<g id="node3" class="node">
<title>CardGridModule</title>
<polygon fill="#8dd3c7" stroke="#000000" points="691.4202,-122 688.4202,-126 667.4202,-126 664.4202,-122 578.5798,-122 578.5798,-86 691.4202,-86 691.4202,-122"/>
<text text-anchor="middle" x="635" y="-99.8" font-family="Times,serif" font-size="14.00" fill="#000000">CardGridModule</text>
</g>
<!-- CardGridModule&#45;&gt;DashboardModule -->
<g id="edge2" class="edge">
<title>CardGridModule&#45;&gt;DashboardModule</title>
<path fill="none" stroke="#000000" d="M635,-122.0225C635,-139.3734 635,-163 635,-163 635,-163 489.168,-163 489.168,-163"/>
<polygon fill="#000000" stroke="#000000" points="489.1681,-159.5001 479.168,-163 489.168,-166.5001 489.1681,-159.5001"/>
</g>
<!-- CardSingleModule -->
<g id="node4" class="node">
<title>CardSingleModule</title>
<polygon fill="#8dd3c7" stroke="#000000" points="561.0409,-122 558.0409,-126 537.0409,-126 534.0409,-122 438.9591,-122 438.9591,-86 561.0409,-86 561.0409,-122"/>
<text text-anchor="middle" x="500" y="-99.8" font-family="Times,serif" font-size="14.00" fill="#000000">CardSingleModule</text>
</g>
<!-- CardSingleModule&#45;&gt;DashboardModule -->
<g id="edge3" class="edge">
<title>CardSingleModule&#45;&gt;DashboardModule</title>
<path fill="none" stroke="#000000" d="M458.9127,-122.1061C458.9127,-122.1061 458.9127,-140.991 458.9127,-140.991"/>
<polygon fill="#000000" stroke="#000000" points="455.4128,-140.9909 458.9127,-150.991 462.4128,-140.991 455.4128,-140.9909"/>
</g>
<!-- DashboardRoutingModule -->
<g id="node5" class="node">
<title>DashboardRoutingModule</title>
<polygon fill="#8dd3c7" stroke="#000000" points="420.8089,-122 417.8089,-126 396.8089,-126 393.8089,-122 255.1911,-122 255.1911,-86 420.8089,-86 420.8089,-122"/>
<text text-anchor="middle" x="338" y="-99.8" font-family="Times,serif" font-size="14.00" fill="#000000">DashboardRoutingModule</text>
</g>
<!-- DashboardRoutingModule&#45;&gt;DashboardModule -->
<g id="edge4" class="edge">
<title>DashboardRoutingModule&#45;&gt;DashboardModule</title>
<path fill="none" stroke="#000000" d="M389.7795,-122.1061C389.7795,-122.1061 389.7795,-140.991 389.7795,-140.991"/>
<polygon fill="#000000" stroke="#000000" points="386.2795,-140.9909 389.7795,-150.991 393.2795,-140.991 386.2795,-140.9909"/>
</g>
<!-- SearchModule -->
<g id="node6" class="node">
<title>SearchModule</title>
<polygon fill="#8dd3c7" stroke="#000000" points="237.6375,-122 234.6375,-126 213.6375,-126 210.6375,-122 140.3625,-122 140.3625,-86 237.6375,-86 237.6375,-122"/>
<text text-anchor="middle" x="189" y="-99.8" font-family="Times,serif" font-size="14.00" fill="#000000">SearchModule</text>
</g>
<!-- SearchModule&#45;&gt;DashboardModule -->
<g id="edge5" class="edge">
<title>SearchModule&#45;&gt;DashboardModule</title>
<path fill="none" stroke="#000000" d="M189,-122.0225C189,-139.3734 189,-163 189,-163 189,-163 348.8706,-163 348.8706,-163"/>
<polygon fill="#000000" stroke="#000000" points="348.8707,-166.5001 358.8706,-163 348.8706,-159.5001 348.8707,-166.5001"/>
</g>
<!-- SharedModule -->
<g id="node7" class="node">
<title>SharedModule</title>
<polygon fill="#8dd3c7" stroke="#000000" points="122.4231,-122 119.4231,-126 98.4231,-126 95.4231,-122 23.5769,-122 23.5769,-86 122.4231,-86 122.4231,-122"/>
<text text-anchor="middle" x="73" y="-99.8" font-family="Times,serif" font-size="14.00" fill="#000000">SharedModule</text>
</g>
<!-- SharedModule&#45;&gt;DashboardModule -->
<g id="edge6" class="edge">
<title>SharedModule&#45;&gt;DashboardModule</title>
<path fill="none" stroke="#000000" d="M73,-122.2843C73,-143.3211 73,-175 73,-175 73,-175 348.7314,-175 348.7314,-175"/>
<polygon fill="#000000" stroke="#000000" points="348.7314,-178.5001 358.7314,-175 348.7314,-171.5001 348.7314,-178.5001"/>
</g>
</g>
</svg>
