<?xml version="1.0" encoding="UTF-8" standalone="no"?>
<!DOCTYPE svg PUBLIC "-//W3C//DTD SVG 1.1//EN"
 "http://www.w3.org/Graphics/SVG/1.1/DTD/svg11.dtd">
<!-- Generated by graphviz version 2.40.1 (20161225.0304)
 -->
<!-- Title: dependencies Pages: 1 -->
<svg width="1180pt" height="504pt"
 viewBox="0.00 0.00 1180.00 504.00" xmlns="http://www.w3.org/2000/svg" xmlns:xlink="http://www.w3.org/1999/xlink">
<g id="graph0" class="graph" transform="scale(1 1) rotate(0) translate(4 500)">
<title>dependencies</title>
<polygon fill="#ffffff" stroke="transparent" points="-4,4 -4,-500 1176,-500 1176,4 -4,4"/>
<text text-anchor="start" x="565.0091" y="-42.4" font-family="sans-serif" font-weight="bold" font-size="14.00" fill="#000000">Legend</text>
<polygon fill="#ffffb3" stroke="transparent" points="352,-10 352,-30 372,-30 372,-10 352,-10"/>
<text text-anchor="start" x="375.629" y="-15.4" font-family="sans-serif" font-size="14.00" fill="#000000"> &#160;Declarations</text>
<polygon fill="#8dd3c7" stroke="transparent" points="465,-10 465,-30 485,-30 485,-10 465,-10"/>
<text text-anchor="start" x="488.7251" y="-15.4" font-family="sans-serif" font-size="14.00" fill="#000000"> &#160;Module</text>
<polygon fill="#80b1d3" stroke="transparent" points="551,-10 551,-30 571,-30 571,-10 551,-10"/>
<text text-anchor="start" x="574.7812" y="-15.4" font-family="sans-serif" font-size="14.00" fill="#000000"> &#160;Bootstrap</text>
<polygon fill="#fdb462" stroke="transparent" points="648,-10 648,-30 668,-30 668,-10 648,-10"/>
<text text-anchor="start" x="671.6732" y="-15.4" font-family="sans-serif" font-size="14.00" fill="#000000"> &#160;Providers</text>
<polygon fill="#fb8072" stroke="transparent" points="744,-10 744,-30 764,-30 764,-10 744,-10"/>
<text text-anchor="start" x="767.7258" y="-15.4" font-family="sans-serif" font-size="14.00" fill="#000000"> &#160;Exports</text>
<g id="clust1" class="cluster">
<title>cluster_AppModule</title>
<polygon fill="none" stroke="#000000" stroke-dasharray="1,5" points="364,-70 364,-488 706,-488 706,-70 364,-70"/>
</g>
<g id="clust2" class="cluster">
<title>cluster_AppModule_declarations</title>
<polygon fill="none" stroke="#000000" points="576,-298 576,-350 698,-350 698,-298 576,-298"/>
</g>
<g id="clust4" class="cluster">
<title>cluster_AppModule_imports</title>
<polygon fill="none" stroke="#000000" points="410,-78 410,-350 568,-350 568,-78 410,-78"/>
</g>
<g id="clust6" class="cluster">
<title>cluster_AppModule_bootstrap</title>
<polygon fill="none" stroke="#000000" points="372,-428 372,-480 496,-480 496,-428 372,-428"/>
</g>
<g id="clust14" class="cluster">
<title>cluster_CardGridModule</title>
<polygon fill="none" stroke="#000000" stroke-dasharray="1,5" points="994,-70 994,-282 1164,-282 1164,-70 994,-70"/>
</g>
<g id="clust15" class="cluster">
<title>cluster_CardGridModule_declarations</title>
<polygon fill="none" stroke="#000000" points="1002,-78 1002,-130 1152,-130 1152,-78 1002,-78"/>
</g>
<g id="clust18" class="cluster">
<title>cluster_CardGridModule_exports</title>
<polygon fill="none" stroke="#000000" points="1002,-222 1002,-274 1156,-274 1156,-222 1002,-222"/>
</g>
<g id="clust21" class="cluster">
<title>cluster_CardSingleModule</title>
<polygon fill="none" stroke="#000000" stroke-dasharray="1,5" points="8,-214 8,-282 356,-282 356,-214 8,-214"/>
</g>
<g id="clust22" class="cluster">
<title>cluster_CardSingleModule_declarations</title>
<polygon fill="none" stroke="#000000" points="188,-222 188,-274 348,-274 348,-222 188,-222"/>
</g>
<g id="clust25" class="cluster">
<title>cluster_CardSingleModule_exports</title>
<polygon fill="none" stroke="#000000" points="16,-222 16,-274 180,-274 180,-222 16,-222"/>
</g>
<g id="clust28" class="cluster">
<title>cluster_DashboardModule</title>
<polygon fill="none" stroke="#000000" stroke-dasharray="1,5" points="714,-290 714,-358 1058,-358 1058,-290 714,-290"/>
</g>
<g id="clust29" class="cluster">
<title>cluster_DashboardModule_declarations</title>
<polygon fill="none" stroke="#000000" points="892,-298 892,-350 1050,-350 1050,-298 892,-298"/>
</g>
<g id="clust32" class="cluster">
<title>cluster_DashboardModule_exports</title>
<polygon fill="none" stroke="#000000" points="722,-298 722,-350 884,-350 884,-298 722,-298"/>
</g>
<g id="clust47" class="cluster">
<title>cluster_SharedModule</title>
<polygon fill="none" stroke="#000000" stroke-dasharray="1,5" points="714,-138 714,-206 986,-206 986,-138 714,-138"/>
</g>
<g id="clust49" class="cluster">
<title>cluster_SharedModule_imports</title>
<polygon fill="none" stroke="#000000" points="856,-146 856,-198 978,-198 978,-146 856,-146"/>
</g>
<g id="clust50" class="cluster">
<title>cluster_SharedModule_exports</title>
<polygon fill="none" stroke="#000000" points="722,-146 722,-198 848,-198 848,-146 722,-146"/>
</g>
<!-- AppComponent -->
<g id="node1" class="node">
<title>AppComponent</title>
<polygon fill="#ffffb3" stroke="#000000" points="689.9399,-342 584.0601,-342 584.0601,-306 689.9399,-306 689.9399,-342"/>
<text text-anchor="middle" x="637" y="-319.8" font-family="Times,serif" font-size="14.00" fill="#000000">AppComponent</text>
</g>
<!-- AppModule -->
<g id="node2" class="node">
<title>AppModule</title>
<polygon fill="#8dd3c7" stroke="#000000" points="465.6571,-407 462.6571,-411 441.6571,-411 438.6571,-407 382.3429,-407 382.3429,-371 465.6571,-371 465.6571,-407"/>
<text text-anchor="middle" x="424" y="-384.8" font-family="Times,serif" font-size="14.00" fill="#000000">AppModule</text>
</g>
<!-- AppComponent&#45;&gt;AppModule -->
<g id="edge1" class="edge">
<title>AppComponent&#45;&gt;AppModule</title>
<path fill="none" stroke="#000000" d="M637,-342.1061C637,-361.3391 637,-389 637,-389 637,-389 475.8278,-389 475.8278,-389"/>
<polygon fill="#000000" stroke="#000000" points="475.8278,-385.5001 465.8278,-389 475.8278,-392.5001 475.8278,-385.5001"/>
</g>
<!-- AppComponent  -->
<g id="node7" class="node">
<title>AppComponent </title>
<polygon fill="#80b1d3" stroke="#000000" points="488.439,-472 379.561,-472 379.561,-436 488.439,-436 488.439,-472"/>
<text text-anchor="middle" x="434" y="-449.8" font-family="Times,serif" font-size="14.00" fill="#000000">AppComponent </text>
</g>
<!-- AppModule&#45;&gt;AppComponent  -->
<g id="edge6" class="edge">
<title>AppModule&#45;&gt;AppComponent </title>
<path fill="none" stroke="#000000" stroke-dasharray="1,5" d="M424,-407.1061C424,-407.1061 424,-425.991 424,-425.991"/>
<polygon fill="#000000" stroke="#000000" points="420.5001,-425.9909 424,-435.991 427.5001,-425.991 420.5001,-425.9909"/>
</g>
<!-- AppRoutingModule -->
<g id="node3" class="node">
<title>AppRoutingModule</title>
<polygon fill="#8dd3c7" stroke="#000000" points="560.2744,-342 557.2744,-346 536.2744,-346 533.2744,-342 431.7256,-342 431.7256,-306 560.2744,-306 560.2744,-342"/>
<text text-anchor="middle" x="496" y="-319.8" font-family="Times,serif" font-size="14.00" fill="#000000">AppRoutingModule</text>
</g>
<!-- AppRoutingModule&#45;&gt;AppModule -->
<g id="edge2" class="edge">
<title>AppRoutingModule&#45;&gt;AppModule</title>
<path fill="none" stroke="#000000" d="M448.7206,-342.1061C448.7206,-342.1061 448.7206,-360.991 448.7206,-360.991"/>
<polygon fill="#000000" stroke="#000000" points="445.2206,-360.9909 448.7206,-370.991 452.2206,-360.991 445.2206,-360.9909"/>
</g>
<!-- CardSingleModule -->
<g id="node4" class="node">
<title>CardSingleModule</title>
<polygon fill="#8dd3c7" stroke="#000000" points="540.0409,-190 537.0409,-194 516.0409,-194 513.0409,-190 417.9591,-190 417.9591,-154 540.0409,-154 540.0409,-190"/>
<text text-anchor="middle" x="479" y="-167.8" font-family="Times,serif" font-size="14.00" fill="#000000">CardSingleModule</text>
</g>
<!-- CardSingleModule&#45;&gt;AppModule -->
<g id="edge3" class="edge">
<title>CardSingleModule&#45;&gt;AppModule</title>
<path fill="none" stroke="#000000" d="M424.6715,-190.1281C424.6715,-190.1281 424.6715,-360.7709 424.6715,-360.7709"/>
<polygon fill="#000000" stroke="#000000" points="421.1715,-360.7709 424.6715,-370.7709 428.1715,-360.771 421.1715,-360.7709"/>
</g>
<!-- DashboardModule -->
<g id="node5" class="node">
<title>DashboardModule</title>
<polygon fill="#8dd3c7" stroke="#000000" points="560.191,-266 557.191,-270 536.191,-270 533.191,-266 439.809,-266 439.809,-230 560.191,-230 560.191,-266"/>
<text text-anchor="middle" x="500" y="-243.8" font-family="Times,serif" font-size="14.00" fill="#000000">DashboardModule</text>
</g>
<!-- CardSingleModule&#45;&gt;DashboardModule -->
<g id="edge16" class="edge">
<title>CardSingleModule&#45;&gt;DashboardModule</title>
<path fill="none" stroke="#000000" d="M490.0873,-190.0109C490.0873,-190.0109 490.0873,-219.855 490.0873,-219.855"/>
<polygon fill="#000000" stroke="#000000" points="486.5874,-219.8549 490.0873,-229.855 493.5874,-219.855 486.5874,-219.8549"/>
</g>
<!-- CardSingleComponent  -->
<g id="node12" class="node">
<title>CardSingleComponent </title>
<polygon fill="#fb8072" stroke="#000000" points="171.8227,-266 24.1773,-266 24.1773,-230 171.8227,-230 171.8227,-266"/>
<text text-anchor="middle" x="98" y="-243.8" font-family="Times,serif" font-size="14.00" fill="#000000">CardSingleComponent </text>
</g>
<!-- CardSingleModule&#45;&gt;CardSingleComponent  -->
<g id="edge13" class="edge">
<title>CardSingleModule&#45;&gt;CardSingleComponent </title>
<path fill="none" stroke="#000000" stroke-dasharray="5,2" d="M417.7858,-172C310.0859,-172 98,-172 98,-172 98,-172 98,-219.9891 98,-219.9891"/>
<polygon fill="#000000" stroke="#000000" points="94.5001,-219.989 98,-229.9891 101.5001,-219.9891 94.5001,-219.989"/>
</g>
<!-- DashboardModule&#45;&gt;AppModule -->
<g id="edge4" class="edge">
<title>DashboardModule&#45;&gt;AppModule</title>
<path fill="none" stroke="#000000" d="M439.6874,-254C432.7747,-254 428.1422,-254 428.1422,-254 428.1422,-254 428.1422,-360.7933 428.1422,-360.7933"/>
<polygon fill="#000000" stroke="#000000" points="424.6423,-360.7933 428.1422,-370.7933 431.6423,-360.7933 424.6423,-360.7933"/>
</g>
<!-- DashboardModule&#45;&gt;AppRoutingModule -->
<g id="edge7" class="edge">
<title>DashboardModule&#45;&gt;AppRoutingModule</title>
<path fill="none" stroke="#000000" d="M500,-266.0109C500,-266.0109 500,-295.855 500,-295.855"/>
<polygon fill="#000000" stroke="#000000" points="496.5001,-295.8549 500,-305.855 503.5001,-295.855 496.5001,-295.8549"/>
</g>
<!-- DashboardComponent  -->
<g id="node14" class="node">
<title>DashboardComponent </title>
<polygon fill="#fb8072" stroke="#000000" points="875.9742,-342 730.0258,-342 730.0258,-306 875.9742,-306 875.9742,-342"/>
<text text-anchor="middle" x="803" y="-319.8" font-family="Times,serif" font-size="14.00" fill="#000000">DashboardComponent </text>
</g>
<!-- DashboardModule&#45;&gt;DashboardComponent  -->
<g id="edge18" class="edge">
<title>DashboardModule&#45;&gt;DashboardComponent </title>
<path fill="none" stroke="#000000" stroke-dasharray="5,2" d="M560.1455,-257C643.8344,-257 785.2493,-257 785.2493,-257 785.2493,-257 785.2493,-295.692 785.2493,-295.692"/>
<polygon fill="#000000" stroke="#000000" points="781.7494,-295.6919 785.2493,-305.692 788.7494,-295.692 781.7494,-295.6919"/>
</g>
<!-- SharedModule -->
<g id="node6" class="node">
<title>SharedModule</title>
<polygon fill="#8dd3c7" stroke="#000000" points="560.4231,-122 557.4231,-126 536.4231,-126 533.4231,-122 461.5769,-122 461.5769,-86 560.4231,-86 560.4231,-122"/>
<text text-anchor="middle" x="511" y="-99.8" font-family="Times,serif" font-size="14.00" fill="#000000">SharedModule</text>
</g>
<!-- SharedModule&#45;&gt;AppModule -->
<g id="edge5" class="edge">
<title>SharedModule&#45;&gt;AppModule</title>
<path fill="none" stroke="#000000" d="M461.6455,-104C431.9871,-104 399.9509,-104 399.9509,-104 399.9509,-104 399.9509,-360.7384 399.9509,-360.7384"/>
<polygon fill="#000000" stroke="#000000" points="396.451,-360.7384 399.9509,-370.7384 403.451,-360.7385 396.451,-360.7384"/>
</g>
<!-- SharedModule&#45;&gt;CardSingleModule -->
<g id="edge12" class="edge">
<title>SharedModule&#45;&gt;CardSingleModule</title>
<path fill="none" stroke="#000000" d="M501.0295,-122.2228C501.0295,-122.2228 501.0295,-143.7269 501.0295,-143.7269"/>
<polygon fill="#000000" stroke="#000000" points="497.5295,-143.7269 501.0295,-153.7269 504.5295,-143.727 497.5295,-143.7269"/>
</g>
<!-- SharedModule&#45;&gt;DashboardModule -->
<g id="edge17" class="edge">
<title>SharedModule&#45;&gt;DashboardModule</title>
<path fill="none" stroke="#000000" d="M546.8785,-122.2377C546.8785,-122.2377 546.8785,-219.9104 546.8785,-219.9104"/>
<polygon fill="#000000" stroke="#000000" points="543.3786,-219.9103 546.8785,-229.9104 550.3786,-219.9104 543.3786,-219.9103"/>
</g>
<!-- CardGridModule -->
<g id="node9" class="node">
<title>CardGridModule</title>
<polygon fill="#8dd3c7" stroke="#000000" points="1123.4202,-190 1120.4202,-194 1099.4202,-194 1096.4202,-190 1010.5798,-190 1010.5798,-154 1123.4202,-154 1123.4202,-190"/>
<text text-anchor="middle" x="1067" y="-167.8" font-family="Times,serif" font-size="14.00" fill="#000000">CardGridModule</text>
</g>
<!-- SharedModule&#45;&gt;CardGridModule -->
<g id="edge9" class="edge">
<title>SharedModule&#45;&gt;CardGridModule</title>
<path fill="none" stroke="#000000" d="M560.2506,-98C683.7452,-98 996.7611,-98 996.7611,-98 996.7611,-98 996.7611,-166 996.7611,-166 996.7611,-166 1000.638,-166 1000.638,-166"/>
<polygon fill="#000000" stroke="#000000" points="1000.6381,-169.5001 1010.638,-166 1000.638,-162.5001 1000.6381,-169.5001"/>
</g>
<!-- MaterialModule  -->
<g id="node16" class="node">
<title>MaterialModule </title>
<polygon fill="#fb8072" stroke="#000000" points="840.4716,-190 729.5284,-190 729.5284,-154 840.4716,-154 840.4716,-190"/>
<text text-anchor="middle" x="785" y="-167.8" font-family="Times,serif" font-size="14.00" fill="#000000">MaterialModule </text>
</g>
<!-- SharedModule&#45;&gt;MaterialModule  -->
<g id="edge20" class="edge">
<title>SharedModule&#45;&gt;MaterialModule </title>
<path fill="none" stroke="#000000" stroke-dasharray="5,2" d="M553.4869,-122.2228C553.4869,-142.3652 553.4869,-172 553.4869,-172 553.4869,-172 719.5469,-172 719.5469,-172"/>
<polygon fill="#000000" stroke="#000000" points="719.5469,-175.5001 729.5469,-172 719.5468,-168.5001 719.5469,-175.5001"/>
</g>
<!-- CardGridComponent -->
<g id="node8" class="node">
<title>CardGridComponent</title>
<polygon fill="#ffffb3" stroke="#000000" points="1144.2022,-122 1009.7978,-122 1009.7978,-86 1144.2022,-86 1144.2022,-122"/>
<text text-anchor="middle" x="1077" y="-99.8" font-family="Times,serif" font-size="14.00" fill="#000000">CardGridComponent</text>
</g>
<!-- CardGridComponent&#45;&gt;CardGridModule -->
<g id="edge8" class="edge">
<title>CardGridComponent&#45;&gt;CardGridModule</title>
<path fill="none" stroke="#000000" d="M1067,-122.2228C1067,-122.2228 1067,-143.7269 1067,-143.7269"/>
<polygon fill="#000000" stroke="#000000" points="1063.5001,-143.7269 1067,-153.7269 1070.5001,-143.727 1063.5001,-143.7269"/>
</g>
<!-- CardGridModule&#45;&gt;DashboardModule -->
<g id="edge15" class="edge">
<title>CardGridModule&#45;&gt;DashboardModule</title>
<path fill="none" stroke="#000000" d="M1010.4631,-178C995.5936,-178 983.6232,-178 983.6232,-178 983.6232,-178 983.6232,-239 983.6232,-239 983.6232,-239 570.2734,-239 570.2734,-239"/>
<polygon fill="#000000" stroke="#000000" points="570.2734,-235.5001 560.2734,-239 570.2733,-242.5001 570.2734,-235.5001"/>
</g>
<!-- CardGridComponent  -->
<g id="node10" class="node">
<title>CardGridComponent </title>
<polygon fill="#fb8072" stroke="#000000" points="1147.7023,-266 1010.2977,-266 1010.2977,-230 1147.7023,-230 1147.7023,-266"/>
<text text-anchor="middle" x="1079" y="-243.8" font-family="Times,serif" font-size="14.00" fill="#000000">CardGridComponent </text>
</g>
<!-- CardGridModule&#45;&gt;CardGridComponent  -->
<g id="edge10" class="edge">
<title>CardGridModule&#45;&gt;CardGridComponent </title>
<path fill="none" stroke="#000000" stroke-dasharray="5,2" d="M1067,-190.0109C1067,-190.0109 1067,-219.855 1067,-219.855"/>
<polygon fill="#000000" stroke="#000000" points="1063.5001,-219.8549 1067,-229.855 1070.5001,-219.855 1063.5001,-219.8549"/>
</g>
<!-- CardSingleComponent -->
<g id="node11" class="node">
<title>CardSingleComponent</title>
<polygon fill="#ffffb3" stroke="#000000" points="340.323,-266 195.677,-266 195.677,-230 340.323,-230 340.323,-266"/>
<text text-anchor="middle" x="268" y="-243.8" font-family="Times,serif" font-size="14.00" fill="#000000">CardSingleComponent</text>
</g>
<!-- CardSingleComponent&#45;&gt;CardSingleModule -->
<g id="edge11" class="edge">
<title>CardSingleComponent&#45;&gt;CardSingleModule</title>
<path fill="none" stroke="#000000" d="M340.5626,-242C380.1602,-242 421.2007,-242 421.2007,-242 421.2007,-242 421.2007,-200.0267 421.2007,-200.0267"/>
<polygon fill="#000000" stroke="#000000" points="424.7008,-200.0267 421.2007,-190.0267 417.7008,-200.0268 424.7008,-200.0267"/>
</g>
<!-- DashboardComponent -->
<g id="node13" class="node">
<title>DashboardComponent</title>
<polygon fill="#ffffb3" stroke="#000000" points="1041.9734,-342 900.0266,-342 900.0266,-306 1041.9734,-306 1041.9734,-342"/>
<text text-anchor="middle" x="971" y="-319.8" font-family="Times,serif" font-size="14.00" fill="#000000">DashboardComponent</text>
</g>
<!-- DashboardComponent&#45;&gt;DashboardModule -->
<g id="edge14" class="edge">
<title>DashboardComponent&#45;&gt;DashboardModule</title>
<path fill="none" stroke="#000000" d="M935.2493,-305.9891C935.2493,-283.5148 935.2493,-248 935.2493,-248 935.2493,-248 570.5196,-248 570.5196,-248"/>
<polygon fill="#000000" stroke="#000000" points="570.5196,-244.5001 560.5196,-248 570.5195,-251.5001 570.5196,-244.5001"/>
</g>
<!-- MaterialModule -->
<g id="node15" class="node">
<title>MaterialModule</title>
<polygon fill="#8dd3c7" stroke="#000000" points="970.4706,-190 967.4706,-194 946.4706,-194 943.4706,-190 863.5294,-190 863.5294,-154 970.4706,-154 970.4706,-190"/>
<text text-anchor="middle" x="917" y="-167.8" font-family="Times,serif" font-size="14.00" fill="#000000">MaterialModule</text>
</g>
<!-- MaterialModule&#45;&gt;SharedModule -->
<g id="edge19" class="edge">
<title>MaterialModule&#45;&gt;SharedModule</title>
<path fill="none" stroke="#000000" d="M917,-153.7333C917,-135.4448 917,-110 917,-110 917,-110 570.3777,-110 570.3777,-110"/>
<polygon fill="#000000" stroke="#000000" points="570.3777,-106.5001 560.3777,-110 570.3776,-113.5001 570.3777,-106.5001"/>
</g>
</g>
</svg>
